<?xml version="1.0" encoding="UTF-8"?><svg xmlns="http://www.w3.org/2000/svg" xmlns:xlink="http://www.w3.org/1999/xlink" stroke-dasharray="none" shape-rendering="auto" font-family="'Dialog'" width="422" text-rendering="auto" fill-opacity="1" contentScriptType="text/ecmascript" color-interpolation="auto" color-rendering="auto" preserveAspectRatio="xMidYMid meet" font-size="12" viewBox="0 0 422 169" fill="black" stroke="black" image-rendering="auto" stroke-miterlimit="10" zoomAndPan="magnify" version="1.0" stroke-linecap="square" stroke-linejoin="miter" contentStyleType="text/css" font-style="normal" height="169" stroke-width="1" stroke-dashoffset="0" font-weight="normal" stroke-opacity="1">
    <!--Generated by the Batik Graphics2D SVG Generator-->
    <defs id="genericDefs"/>
    <g>
        <defs id="defs1">
            <clipPath clipPathUnits="userSpaceOnUse" id="clipPath1">
                <path d="M9 113 L84 113 L84 155 L9 155 L9 113 Z"/>
            </clipPath>
            <clipPath clipPathUnits="userSpaceOnUse" id="clipPath2">
                <path d="M15 125 L78 125 L78 142 L15 142 L15 125 Z"/>
            </clipPath>
            <clipPath clipPathUnits="userSpaceOnUse" id="clipPath3">
                <path d="M249 113 L342 113 L342 155 L249 155 L249 113 Z"/>
            </clipPath>
            <clipPath clipPathUnits="userSpaceOnUse" id="clipPath4">
                <path d="M255 125 L336 125 L336 142 L255 142 L255 125 Z"/>
            </clipPath>
            <clipPath clipPathUnits="userSpaceOnUse" id="clipPath5">
                <path d="M387 12 L409 12 L409 34 L387 34 L387 12 Z"/>
            </clipPath>
            <clipPath clipPathUnits="userSpaceOnUse" id="clipPath6">
                <path d="M-1 -1 L423 -1 L423 170 L-1 170 L-1 -1 Z"/>
            </clipPath>
            <clipPath clipPathUnits="userSpaceOnUse" id="clipPath7">
                <path d="M312 106 L322 106 L322 116 L312 116 L312 106 Z"/>
            </clipPath>
            <clipPath clipPathUnits="userSpaceOnUse" id="clipPath8">
                <path d="M-1 -1 L423 -1 L423 170 L-1 170 L-1 -1 Z"/>
            </clipPath>
            <clipPath clipPathUnits="userSpaceOnUse" id="clipPath9">
                <path d="M82 117 L92 117 L92 126 L82 126 L82 117 Z"/>
            </clipPath>
            <clipPath clipPathUnits="userSpaceOnUse" id="clipPath10">
                <path d="M-1 -1 L423 -1 L423 170 L-1 170 L-1 -1 Z"/>
            </clipPath>
            <clipPath clipPathUnits="userSpaceOnUse" id="clipPath11">
                <path d="M242 138 L252 138 L252 147 L242 147 L242 138 Z"/>
            </clipPath>
        </defs>
        <g fill="white" font-family="'.AppleSystemUIFont'" stroke-linejoin="round" stroke="white" font-weight="bold" stroke-width="0" stroke-miterlimit="0">
            <rect x="10" y="114" clip-path="url(#clipPath1)" uuid="_OR_5kJpBEeqqQIEemyx-2w" width="73" rx="4" ry="4" height="40" stroke="none" stroke-width="1.1"/>
        </g>
        <g stroke-linecap="butt" fill="rgb(176,176,176)" font-family="'.AppleSystemUIFont'" stroke="rgb(176,176,176)" font-weight="bold" stroke-width="1.1">
            <rect x="10" y="114" clip-path="url(#clipPath1)" fill="none" width="72" rx="4" ry="4" height="39"/>
            <text x="16" y="138" clip-path="url(#clipPath2)" fill="black" stroke="none" xml:space="preserve">Operating</text>
        </g>
        <g stroke-linecap="butt" fill="white" font-family="'.AppleSystemUIFont'" stroke="white" font-weight="bold" stroke-width="1.1">
            <rect x="250" y="114" clip-path="url(#clipPath3)" uuid="_PQ5KwZpBEeqqQIEemyx-2w" width="91" rx="4" ry="4" height="40" stroke="none"/>
            <rect x="250" y="114" clip-path="url(#clipPath3)" fill="none" width="90" rx="4" ry="4" height="39" stroke="rgb(176,176,176)"/>
            <text x="256" y="138" clip-path="url(#clipPath4)" fill="black" stroke="none" xml:space="preserve">Maneuvering</text>
        </g>
        <g stroke-linecap="butt" font-size="9" fill="white" font-family="'.AppleSystemUIFont'" stroke="white" stroke-width="1.1">
            <circle clip-path="url(#clipPath5)" fill="black" r="6.5" cx="397.5" cy="24.5" stroke="none"/>
            <rect x="389" y="13" clip-path="url(#clipPath5)" fill="black" width="18" height="3" stroke="none"/>
        </g>
        <g font-size="9" font-family="'.AppleSystemUIFont'" stroke-linecap="butt">
            <line clip-path="url(#clipPath6)" fill="none" uuid="_RRUxcZpBEeqqQIEemyx-2w" x1="398" x2="313" y1="23" y2="114"/>
            <polygon uuid="_RRUxcZpBEeqqQIEemyx-2w" clip-path="url(#clipPath7)" points=" 313 114 316 107 320 111" stroke="none"/>
            <polygon uuid="_RRUxcZpBEeqqQIEemyx-2w" fill="none" clip-path="url(#clipPath7)" points=" 313 114 316 107 320 111"/>
        </g>
        <g font-size="9" font-family="'.AppleSystemUIFont'" stroke-linecap="butt">
            <line clip-path="url(#clipPath8)" fill="none" uuid="_RyJmkJpBEeqqQIEemyx-2w" x1="250" x2="83" y1="121" y2="121"/>
            <polygon uuid="_RyJmkJpBEeqqQIEemyx-2w" clip-path="url(#clipPath9)" points=" 83 121 90 118 90 124" stroke="none"/>
            <polygon uuid="_RyJmkJpBEeqqQIEemyx-2w" fill="none" clip-path="url(#clipPath9)" points=" 83 121 90 118 90 124"/>
        </g>
        <g font-size="9" font-family="'.AppleSystemUIFont'" stroke-linecap="butt">
            <line clip-path="url(#clipPath10)" fill="none" uuid="_STnU4ZpBEeqqQIEemyx-2w" x1="83" x2="250" y1="142" y2="142"/>
            <polygon uuid="_STnU4ZpBEeqqQIEemyx-2w" clip-path="url(#clipPath11)" points=" 250 142 243 145 243 139" stroke="none"/>
            <polygon uuid="_STnU4ZpBEeqqQIEemyx-2w" fill="none" clip-path="url(#clipPath11)" points=" 250 142 243 145 243 139"/>
        </g>
    </g>
</svg>
