<?xml version="1.0" encoding="UTF-8"?><svg xmlns="http://www.w3.org/2000/svg" xmlns:xlink="http://www.w3.org/1999/xlink" stroke-dasharray="none" shape-rendering="auto" font-family="'Dialog'" width="591" text-rendering="auto" fill-opacity="1" contentScriptType="text/ecmascript" color-interpolation="auto" color-rendering="auto" preserveAspectRatio="xMidYMid meet" font-size="12" viewBox="0 0 591 516" fill="black" stroke="black" image-rendering="auto" stroke-miterlimit="10" zoomAndPan="magnify" version="1.0" stroke-linecap="square" stroke-linejoin="miter" contentStyleType="text/css" font-style="normal" height="516" stroke-width="1" stroke-dashoffset="0" font-weight="normal" stroke-opacity="1">
    <!--Generated by the Batik Graphics2D SVG Generator-->
    <defs id="genericDefs"/>
    <g>
        <defs id="defs1">
            <clipPath clipPathUnits="userSpaceOnUse" id="clipPath1">
                <path d="M118 85 L270 85 L270 127 L118 127 L118 85 Z"/>
            </clipPath>
            <clipPath clipPathUnits="userSpaceOnUse" id="clipPath2">
                <path d="M170 97 L218 97 L218 114 L170 114 L170 97 Z"/>
            </clipPath>
            <clipPath clipPathUnits="userSpaceOnUse" id="clipPath3">
                <path d="M183 12 L205 12 L205 34 L183 34 L183 12 Z"/>
            </clipPath>
            <clipPath clipPathUnits="userSpaceOnUse" id="clipPath4">
                <path d="M21 205 L144 205 L144 247 L21 247 L21 205 Z"/>
            </clipPath>
            <clipPath clipPathUnits="userSpaceOnUse" id="clipPath5">
                <path d="M62 217 L102 217 L102 234 L62 234 L62 217 Z"/>
            </clipPath>
            <clipPath clipPathUnits="userSpaceOnUse" id="clipPath6">
                <path d="M275 205 L494 205 L494 247 L275 247 L275 205 Z"/>
            </clipPath>
            <clipPath clipPathUnits="userSpaceOnUse" id="clipPath7">
                <path d="M352 217 L416 217 L416 234 L352 234 L352 217 Z"/>
            </clipPath>
            <clipPath clipPathUnits="userSpaceOnUse" id="clipPath8">
                <path d="M9 385 L156 385 L156 427 L9 427 L9 385 Z"/>
            </clipPath>
            <clipPath clipPathUnits="userSpaceOnUse" id="clipPath9">
                <path d="M53 397 L111 397 L111 414 L53 414 L53 397 Z"/>
            </clipPath>
            <clipPath clipPathUnits="userSpaceOnUse" id="clipPath10">
                <path d="M419 337 L578 337 L578 379 L419 379 L419 337 Z"/>
            </clipPath>
            <clipPath clipPathUnits="userSpaceOnUse" id="clipPath11">
                <path d="M469 349 L527 349 L527 366 L469 366 L469 349 Z"/>
            </clipPath>
            <clipPath clipPathUnits="userSpaceOnUse" id="clipPath12">
                <path d="M263 457 L410 457 L410 499 L263 499 L263 457 Z"/>
            </clipPath>
            <clipPath clipPathUnits="userSpaceOnUse" id="clipPath13">
                <path d="M312 469 L360 469 L360 486 L312 486 L312 469 Z"/>
            </clipPath>
            <clipPath clipPathUnits="userSpaceOnUse" id="clipPath14">
                <path d="M-1 -1 L592 -1 L592 517 L-1 517 L-1 -1 Z"/>
            </clipPath>
            <clipPath clipPathUnits="userSpaceOnUse" id="clipPath15">
                <path d="M190 78 L199 78 L199 88 L190 88 L190 78 Z"/>
            </clipPath>
            <clipPath clipPathUnits="userSpaceOnUse" id="clipPath16">
                <path d="M-1 -1 L592 -1 L592 517 L-1 517 L-1 -1 Z"/>
            </clipPath>
            <clipPath clipPathUnits="userSpaceOnUse" id="clipPath17">
                <path d="M90 197 L99 197 L99 208 L90 208 L90 197 Z"/>
            </clipPath>
            <clipPath clipPathUnits="userSpaceOnUse" id="clipPath18">
                <path d="M-1 -1 L592 -1 L592 517 L-1 517 L-1 -1 Z"/>
            </clipPath>
            <clipPath clipPathUnits="userSpaceOnUse" id="clipPath19">
                <path d="M268 221 L278 221 L278 230 L268 230 L268 221 Z"/>
            </clipPath>
            <clipPath clipPathUnits="userSpaceOnUse" id="clipPath20">
                <path d="M-1 -1 L592 -1 L592 517 L-1 517 L-1 -1 Z"/>
            </clipPath>
            <clipPath clipPathUnits="userSpaceOnUse" id="clipPath21">
                <path d="M98 378 L107 378 L107 388 L98 388 L98 378 Z"/>
            </clipPath>
            <clipPath clipPathUnits="userSpaceOnUse" id="clipPath22">
                <path d="M-1 -1 L592 -1 L592 517 L-1 517 L-1 -1 Z"/>
            </clipPath>
            <clipPath clipPathUnits="userSpaceOnUse" id="clipPath23">
                <path d="M57 245 L66 245 L66 255 L57 255 L57 245 Z"/>
            </clipPath>
            <clipPath clipPathUnits="userSpaceOnUse" id="clipPath24">
                <path d="M-1 -1 L592 -1 L592 517 L-1 517 L-1 -1 Z"/>
            </clipPath>
            <clipPath clipPathUnits="userSpaceOnUse" id="clipPath25">
                <path d="M480 329 L489 329 L489 340 L480 340 L480 329 Z"/>
            </clipPath>
            <clipPath clipPathUnits="userSpaceOnUse" id="clipPath26">
                <path d="M-1 -1 L592 -1 L592 517 L-1 517 L-1 -1 Z"/>
            </clipPath>
            <clipPath clipPathUnits="userSpaceOnUse" id="clipPath27">
                <path d="M346 451 L356 451 L356 460 L346 460 L346 451 Z"/>
            </clipPath>
            <clipPath clipPathUnits="userSpaceOnUse" id="clipPath28">
                <path d="M-1 -1 L592 -1 L592 517 L-1 517 L-1 -1 Z"/>
            </clipPath>
            <clipPath clipPathUnits="userSpaceOnUse" id="clipPath29">
                <path d="M559 377 L569 377 L569 387 L559 387 L559 377 Z"/>
            </clipPath>
            <clipPath clipPathUnits="userSpaceOnUse" id="clipPath30">
                <path d="M-1 -1 L592 -1 L592 517 L-1 517 L-1 -1 Z"/>
            </clipPath>
            <clipPath clipPathUnits="userSpaceOnUse" id="clipPath31">
                <path d="M127 245 L137 245 L137 255 L127 255 L127 245 Z"/>
            </clipPath>
            <clipPath clipPathUnits="userSpaceOnUse" id="clipPath32">
                <path d="M-1 -1 L592 -1 L592 517 L-1 517 L-1 -1 Z"/>
            </clipPath>
            <clipPath clipPathUnits="userSpaceOnUse" id="clipPath33">
                <path d="M268 118 L279 118 L279 127 L268 127 L268 118 Z"/>
            </clipPath>
        </defs>
        <g fill="white" font-family="'.AppleSystemUIFont'" stroke-linejoin="round" stroke="white" font-weight="bold" stroke-width="0" stroke-miterlimit="0">
            <rect x="119" y="86" clip-path="url(#clipPath1)" uuid="_0qxwYJciEeqUuepXYUrgtg" width="150" rx="4" ry="4" height="40" stroke="none" stroke-width="1.1"/>
        </g>
        <g stroke-linecap="butt" fill="rgb(176,176,176)" font-family="'.AppleSystemUIFont'" stroke="rgb(176,176,176)" font-weight="bold" stroke-width="1.1">
            <rect x="119" y="86" clip-path="url(#clipPath1)" fill="none" width="149" rx="4" ry="4" height="39"/>
            <text x="171" y="110" clip-path="url(#clipPath2)" fill="black" stroke="none" xml:space="preserve">Waiting</text>
        </g>
        <g stroke-linecap="butt" font-size="9" fill="white" font-family="'.AppleSystemUIFont'" stroke="white" stroke-width="1.1">
            <circle clip-path="url(#clipPath3)" fill="black" r="6.5" cx="193.5" cy="24.5" stroke="none"/>
            <rect x="185" y="13" clip-path="url(#clipPath3)" fill="black" width="18" height="3" stroke="none"/>
        </g>
        <g stroke-linecap="butt" fill="white" font-family="'.AppleSystemUIFont'" stroke="white" font-weight="bold" stroke-width="1.1">
            <rect x="22" y="206" clip-path="url(#clipPath4)" uuid="_7fovYZciEeqUuepXYUrgtg" width="121" rx="4" ry="4" height="40" stroke="none"/>
            <rect x="22" y="206" clip-path="url(#clipPath4)" fill="none" width="120" rx="4" ry="4" height="39" stroke="rgb(176,176,176)"/>
            <text x="63" y="230" clip-path="url(#clipPath5)" fill="black" stroke="none" xml:space="preserve">Ready</text>
        </g>
        <g stroke-linecap="butt" fill="white" font-family="'.AppleSystemUIFont'" stroke="white" font-weight="bold" stroke-width="1.1">
            <rect x="276" y="206" clip-path="url(#clipPath6)" uuid="_mPooUJfZEeq49tuNB7DUMA" width="217" rx="4" ry="4" height="40" stroke="none"/>
            <rect x="276" y="206" clip-path="url(#clipPath6)" fill="none" width="216" rx="4" ry="4" height="39" stroke="rgb(176,176,176)"/>
            <text x="353" y="230" clip-path="url(#clipPath7)" fill="black" stroke="none" xml:space="preserve">Allocating</text>
        </g>
        <g stroke-linecap="butt" fill="white" font-family="'.AppleSystemUIFont'" stroke="white" font-weight="bold" stroke-width="1.1">
            <rect x="10" y="386" clip-path="url(#clipPath8)" uuid="_wvrfoZfZEeq49tuNB7DUMA" width="145" rx="4" ry="4" height="40" stroke="none"/>
            <rect x="10" y="386" clip-path="url(#clipPath8)" fill="none" width="144" rx="4" ry="4" height="39" stroke="rgb(176,176,176)"/>
            <text x="54" y="410" clip-path="url(#clipPath9)" fill="black" stroke="none" xml:space="preserve">Updating</text>
        </g>
        <g stroke-linecap="butt" fill="white" font-family="'.AppleSystemUIFont'" stroke="white" font-weight="bold" stroke-width="1.1">
            <rect x="420" y="338" clip-path="url(#clipPath10)" uuid="_fmXYYJhUEeq49tuNB7DUMA" width="157" rx="4" ry="4" height="40" stroke="none"/>
            <rect x="420" y="338" clip-path="url(#clipPath10)" fill="none" width="156" rx="4" ry="4" height="39" stroke="rgb(176,176,176)"/>
            <text x="470" y="362" clip-path="url(#clipPath11)" fill="black" stroke="none" xml:space="preserve">Notifying</text>
        </g>
        <g stroke-linecap="butt" fill="white" font-family="'.AppleSystemUIFont'" stroke="white" font-weight="bold" stroke-width="1.1">
            <rect x="264" y="458" clip-path="url(#clipPath12)" uuid="_3Re1IJicEeq49tuNB7DUMA" width="145" rx="4" ry="4" height="40" stroke="none"/>
            <rect x="264" y="458" clip-path="url(#clipPath12)" fill="none" width="144" rx="4" ry="4" height="39" stroke="rgb(176,176,176)"/>
            <text x="313" y="482" clip-path="url(#clipPath13)" fill="black" stroke="none" xml:space="preserve">Binding</text>
        </g>
        <g font-size="9" font-family="'.AppleSystemUIFont'" stroke-linecap="butt">
            <line clip-path="url(#clipPath14)" fill="none" uuid="_68xS4ZciEeqUuepXYUrgtg" x1="194" x2="194" y1="23" y2="86"/>
            <polygon uuid="_68xS4ZciEeqUuepXYUrgtg" clip-path="url(#clipPath15)" points=" 194 86 191 79 197 79" stroke="none"/>
            <polygon uuid="_68xS4ZciEeqUuepXYUrgtg" fill="none" clip-path="url(#clipPath15)" points=" 194 86 191 79 197 79"/>
        </g>
        <g font-size="9" font-family="'.AppleSystemUIFont'" stroke-linecap="butt">
            <line clip-path="url(#clipPath16)" fill="none" uuid="__UkZkZciEeqUuepXYUrgtg" x1="129" x2="91" y1="126" y2="206"/>
            <polygon uuid="__UkZkZciEeqUuepXYUrgtg" clip-path="url(#clipPath17)" points=" 91 206 91 198 97 201" stroke="none"/>
            <polygon uuid="__UkZkZciEeqUuepXYUrgtg" fill="none" clip-path="url(#clipPath17)" points=" 91 206 91 198 97 201"/>
        </g>
        <g font-size="9" font-family="'.AppleSystemUIFont'" stroke-linecap="butt">
            <line clip-path="url(#clipPath18)" fill="none" uuid="_ucZ1cJfZEeq49tuNB7DUMA" x1="143" x2="276" y1="225" y2="225"/>
            <polygon uuid="_ucZ1cJfZEeq49tuNB7DUMA" clip-path="url(#clipPath19)" points=" 276 225 269 228 269 222" stroke="none"/>
            <polygon uuid="_ucZ1cJfZEeq49tuNB7DUMA" fill="none" clip-path="url(#clipPath19)" points=" 276 225 269 228 269 222"/>
        </g>
        <g font-size="9" font-family="'.AppleSystemUIFont'" stroke-linecap="butt">
            <line clip-path="url(#clipPath20)" fill="none" uuid="_2mPqYJfZEeq49tuNB7DUMA" x1="102" x2="102" y1="246" y2="386"/>
            <polygon uuid="_2mPqYJfZEeq49tuNB7DUMA" clip-path="url(#clipPath21)" points=" 102 386 99 379 105 379" stroke="none"/>
            <polygon uuid="_2mPqYJfZEeq49tuNB7DUMA" fill="none" clip-path="url(#clipPath21)" points=" 102 386 99 379 105 379"/>
        </g>
        <g font-size="9" font-family="'.AppleSystemUIFont'" stroke-linecap="butt">
            <line clip-path="url(#clipPath22)" fill="none" uuid="_YRIFoZhTEeq49tuNB7DUMA" x1="61" x2="61" y1="386" y2="246"/>
            <polygon uuid="_YRIFoZhTEeq49tuNB7DUMA" clip-path="url(#clipPath23)" points=" 61 246 64 253 58 253" stroke="none"/>
            <polygon uuid="_YRIFoZhTEeq49tuNB7DUMA" fill="none" clip-path="url(#clipPath23)" points=" 61 246 64 253 58 253"/>
        </g>
        <g font-size="9" font-family="'.AppleSystemUIFont'" stroke-linecap="butt">
            <line clip-path="url(#clipPath24)" fill="none" uuid="_w2-kkZhUEeq49tuNB7DUMA" x1="458" x2="486" y1="246" y2="338"/>
            <polygon uuid="_w2-kkZhUEeq49tuNB7DUMA" clip-path="url(#clipPath25)" points=" 486 338 481 332 487 330" stroke="none"/>
            <polygon uuid="_w2-kkZhUEeq49tuNB7DUMA" fill="none" clip-path="url(#clipPath25)" points=" 486 338 481 332 487 330"/>
        </g>
        <g font-size="9" font-family="'.AppleSystemUIFont'" stroke-linecap="butt">
            <line clip-path="url(#clipPath26)" fill="none" uuid="_65T3cZicEeq49tuNB7DUMA" x1="463" x2="347" y1="378" y2="458"/>
            <polygon uuid="_65T3cZicEeq49tuNB7DUMA" clip-path="url(#clipPath27)" points=" 347 458 351 452 354 456" stroke="none"/>
            <polygon uuid="_65T3cZicEeq49tuNB7DUMA" fill="none" clip-path="url(#clipPath27)" points=" 347 458 351 452 354 456"/>
        </g>
        <g font-size="9" font-family="'.AppleSystemUIFont'" stroke-linecap="butt">
            <line clip-path="url(#clipPath28)" fill="none" uuid="_lTSf4JkNEeq49tuNB7DUMA" x1="409" x2="567" y1="492" y2="378"/>
            <polygon uuid="_lTSf4JkNEeq49tuNB7DUMA" clip-path="url(#clipPath29)" points=" 567 378 563 385 560 380" stroke="none"/>
            <polygon uuid="_lTSf4JkNEeq49tuNB7DUMA" fill="none" clip-path="url(#clipPath29)" points=" 567 378 563 385 560 380"/>
        </g>
        <g font-size="9" font-family="'.AppleSystemUIFont'" stroke-linecap="butt">
            <line clip-path="url(#clipPath30)" fill="none" uuid="_CVbAEJkTEeq49tuNB7DUMA" x1="307" x2="128" y1="458" y2="246"/>
            <polygon uuid="_CVbAEJkTEeq49tuNB7DUMA" clip-path="url(#clipPath31)" points=" 128 246 135 249 130 253" stroke="none"/>
            <polygon uuid="_CVbAEJkTEeq49tuNB7DUMA" fill="none" clip-path="url(#clipPath31)" points=" 128 246 135 249 130 253"/>
        </g>
        <g font-size="9" font-family="'.AppleSystemUIFont'" stroke-linecap="butt">
            <line clip-path="url(#clipPath32)" fill="none" uuid="__ztLcJl5EeqQ1p0AkO9stQ" x1="431" x2="269" y1="206" y2="119"/>
            <polygon uuid="__ztLcJl5EeqQ1p0AkO9stQ" clip-path="url(#clipPath33)" points=" 269 119 277 120 274 125" stroke="none"/>
            <polygon uuid="__ztLcJl5EeqQ1p0AkO9stQ" fill="none" clip-path="url(#clipPath33)" points=" 269 119 277 120 274 125"/>
        </g>
    </g>
</svg>
