<?xml version="1.0" encoding="UTF-8"?><svg xmlns="http://www.w3.org/2000/svg" xmlns:xlink="http://www.w3.org/1999/xlink" stroke-dasharray="none" shape-rendering="auto" font-family="'Dialog'" width="728" text-rendering="auto" fill-opacity="1" contentScriptType="text/ecmascript" color-interpolation="auto" color-rendering="auto" preserveAspectRatio="xMidYMid meet" font-size="12" viewBox="0 0 728 327" fill="black" stroke="black" image-rendering="auto" stroke-miterlimit="10" zoomAndPan="magnify" version="1.0" stroke-linecap="square" stroke-linejoin="miter" contentStyleType="text/css" font-style="normal" height="327" stroke-width="1" stroke-dashoffset="0" font-weight="normal" stroke-opacity="1">
    <!--Generated by the Batik Graphics2D SVG Generator-->
    <defs id="genericDefs"/>
    <g>
        <defs id="defs1">
            <clipPath clipPathUnits="userSpaceOnUse" id="clipPath1">
                <path d="M525 112 L624 112 L624 154 L525 154 L525 112 Z"/>
            </clipPath>
            <clipPath clipPathUnits="userSpaceOnUse" id="clipPath2">
                <path d="M562 124 L587 124 L587 141 L562 141 L562 124 Z"/>
            </clipPath>
            <clipPath clipPathUnits="userSpaceOnUse" id="clipPath3">
                <path d="M305 112 L408 112 L408 154 L305 154 L305 112 Z"/>
            </clipPath>
            <clipPath clipPathUnits="userSpaceOnUse" id="clipPath4">
                <path d="M330 124 L382 124 L382 141 L330 141 L330 124 Z"/>
            </clipPath>
            <clipPath clipPathUnits="userSpaceOnUse" id="clipPath5">
                <path d="M693 12 L715 12 L715 34 L693 34 L693 12 Z"/>
            </clipPath>
            <clipPath clipPathUnits="userSpaceOnUse" id="clipPath6">
                <path d="M9 112 L168 112 L168 154 L9 154 L9 112 Z"/>
            </clipPath>
            <clipPath clipPathUnits="userSpaceOnUse" id="clipPath7">
                <path d="M50 124 L127 124 L127 141 L50 141 L50 124 Z"/>
            </clipPath>
            <clipPath clipPathUnits="userSpaceOnUse" id="clipPath8">
                <path d="M285 276 L432 276 L432 318 L285 318 L285 276 Z"/>
            </clipPath>
            <clipPath clipPathUnits="userSpaceOnUse" id="clipPath9">
                <path d="M327 288 L389 288 L389 305 L327 305 L327 288 Z"/>
            </clipPath>
            <clipPath clipPathUnits="userSpaceOnUse" id="clipPath10">
                <path d="M-1 -1 L729 -1 L729 328 L-1 328 L-1 -1 Z"/>
            </clipPath>
            <clipPath clipPathUnits="userSpaceOnUse" id="clipPath11">
                <path d="M406 115 L416 115 L416 124 L406 124 L406 115 Z"/>
            </clipPath>
            <clipPath clipPathUnits="userSpaceOnUse" id="clipPath12">
                <path d="M-1 -1 L729 -1 L729 328 L-1 328 L-1 -1 Z"/>
            </clipPath>
            <clipPath clipPathUnits="userSpaceOnUse" id="clipPath13">
                <path d="M620 105 L630 105 L630 115 L620 115 L620 105 Z"/>
            </clipPath>
            <clipPath clipPathUnits="userSpaceOnUse" id="clipPath14">
                <path d="M-1 -1 L729 -1 L729 328 L-1 328 L-1 -1 Z"/>
            </clipPath>
            <clipPath clipPathUnits="userSpaceOnUse" id="clipPath15">
                <path d="M518 144 L528 144 L528 153 L518 153 L518 144 Z"/>
            </clipPath>
            <clipPath clipPathUnits="userSpaceOnUse" id="clipPath16">
                <path d="M-1 -1 L729 -1 L729 328 L-1 328 L-1 -1 Z"/>
            </clipPath>
            <clipPath clipPathUnits="userSpaceOnUse" id="clipPath17">
                <path d="M166 119 L176 119 L176 128 L166 128 L166 119 Z"/>
            </clipPath>
            <clipPath clipPathUnits="userSpaceOnUse" id="clipPath18">
                <path d="M-1 -1 L729 -1 L729 328 L-1 328 L-1 -1 Z"/>
            </clipPath>
            <clipPath clipPathUnits="userSpaceOnUse" id="clipPath19">
                <path d="M298 142 L308 142 L308 151 L298 151 L298 142 Z"/>
            </clipPath>
            <clipPath clipPathUnits="userSpaceOnUse" id="clipPath20">
                <path d="M-1 -1 L729 -1 L729 328 L-1 328 L-1 -1 Z"/>
            </clipPath>
            <clipPath clipPathUnits="userSpaceOnUse" id="clipPath21">
                <path d="M324 269 L333 269 L333 279 L324 279 L324 269 Z"/>
            </clipPath>
            <clipPath clipPathUnits="userSpaceOnUse" id="clipPath22">
                <path d="M-1 -1 L729 -1 L729 328 L-1 328 L-1 -1 Z"/>
            </clipPath>
            <clipPath clipPathUnits="userSpaceOnUse" id="clipPath23">
                <path d="M384 152 L393 152 L393 162 L384 162 L384 152 Z"/>
            </clipPath>
        </defs>
        <g fill="white" font-family="'.AppleSystemUIFont'" stroke-linejoin="round" stroke="white" font-weight="bold" stroke-width="0" stroke-miterlimit="0">
            <rect x="526" y="113" clip-path="url(#clipPath1)" uuid="_iY3WsZSaEeqUuepXYUrgtg" width="97" rx="4" ry="4" height="40" stroke="none" stroke-width="1.1"/>
        </g>
        <g stroke-linecap="butt" fill="rgb(176,176,176)" font-family="'.AppleSystemUIFont'" stroke="rgb(176,176,176)" font-weight="bold" stroke-width="1.1">
            <rect x="526" y="113" clip-path="url(#clipPath1)" fill="none" width="96" rx="4" ry="4" height="39"/>
            <text x="563" y="137" clip-path="url(#clipPath2)" fill="black" stroke="none" xml:space="preserve">Idle</text>
        </g>
        <g stroke-linecap="butt" fill="white" font-family="'.AppleSystemUIFont'" stroke="white" font-weight="bold" stroke-width="1.1">
            <rect x="306" y="113" clip-path="url(#clipPath3)" uuid="_pSQQYZSaEeqUuepXYUrgtg" width="101" rx="4" ry="4" height="40" stroke="none"/>
            <rect x="306" y="113" clip-path="url(#clipPath3)" fill="none" width="100" rx="4" ry="4" height="39" stroke="rgb(176,176,176)"/>
            <text x="331" y="137" clip-path="url(#clipPath4)" fill="black" stroke="none" xml:space="preserve">Running</text>
        </g>
        <g fill="white" stroke-width="1.1" font-family="'.AppleSystemUIFont'" stroke-linecap="butt" stroke="white">
            <circle clip-path="url(#clipPath5)" fill="black" r="6.5" cx="703.5" cy="24.5" stroke="none"/>
            <rect x="695" y="13" clip-path="url(#clipPath5)" fill="black" width="18" height="3" stroke="none"/>
        </g>
        <g stroke-linecap="butt" fill="white" font-family="'.AppleSystemUIFont'" stroke="white" font-weight="bold" stroke-width="1.1">
            <rect x="10" y="113" clip-path="url(#clipPath6)" uuid="_6_SWMJTDEeqUuepXYUrgtg" width="157" rx="4" ry="4" height="40" stroke="none"/>
            <rect x="10" y="113" clip-path="url(#clipPath6)" fill="none" width="156" rx="4" ry="4" height="39" stroke="rgb(176,176,176)"/>
            <text x="51" y="137" clip-path="url(#clipPath7)" fill="black" stroke="none" xml:space="preserve">Reallocating</text>
        </g>
        <g stroke-linecap="butt" fill="white" font-family="'.AppleSystemUIFont'" stroke="white" font-weight="bold" stroke-width="1.1">
            <rect x="286" y="277" clip-path="url(#clipPath8)" uuid="_FyWA4JYIEeqUuepXYUrgtg" width="145" rx="4" ry="4" height="40" stroke="none"/>
            <rect x="286" y="277" clip-path="url(#clipPath8)" fill="none" width="144" rx="4" ry="4" height="39" stroke="rgb(176,176,176)"/>
            <text x="328" y="301" clip-path="url(#clipPath9)" fill="black" stroke="none" xml:space="preserve">Reporting</text>
        </g>
        <g stroke-linecap="butt" font-family="'.AppleSystemUIFont'">
            <line clip-path="url(#clipPath10)" fill="none" uuid="_AjNOYZSbEeqUuepXYUrgtg" x1="526" x2="407" y1="119" y2="119"/>
            <polygon uuid="_AjNOYZSbEeqUuepXYUrgtg" clip-path="url(#clipPath11)" points=" 407 119 414 116 414 122" stroke="none"/>
            <polygon uuid="_AjNOYZSbEeqUuepXYUrgtg" fill="none" clip-path="url(#clipPath11)" points=" 407 119 414 116 414 122"/>
        </g>
        <g stroke-linecap="butt" font-family="'.AppleSystemUIFont'">
            <line clip-path="url(#clipPath12)" fill="none" uuid="_SlqHMZSbEeqUuepXYUrgtg" x1="704" x2="621" y1="23" y2="113"/>
            <polygon uuid="_SlqHMZSbEeqUuepXYUrgtg" clip-path="url(#clipPath13)" points=" 621 113 624 106 628 110" stroke="none"/>
            <polygon uuid="_SlqHMZSbEeqUuepXYUrgtg" fill="none" clip-path="url(#clipPath13)" points=" 621 113 624 106 628 110"/>
        </g>
        <g font-size="9" font-family="'.AppleSystemUIFont'" stroke-linecap="butt">
            <line clip-path="url(#clipPath14)" fill="none" uuid="_FCbEgJTDEeqUuepXYUrgtg" x1="407" x2="526" y1="148" y2="148"/>
            <polygon uuid="_FCbEgJTDEeqUuepXYUrgtg" clip-path="url(#clipPath15)" points=" 526 148 519 151 519 145" stroke="none"/>
            <polygon uuid="_FCbEgJTDEeqUuepXYUrgtg" fill="none" clip-path="url(#clipPath15)" points=" 526 148 519 151 519 145"/>
        </g>
        <g font-size="9" font-family="'.AppleSystemUIFont'" stroke-linecap="butt">
            <line clip-path="url(#clipPath16)" fill="none" uuid="_-46TIZTDEeqUuepXYUrgtg" x1="306" x2="167" y1="123" y2="123"/>
            <polygon uuid="_-46TIZTDEeqUuepXYUrgtg" clip-path="url(#clipPath17)" points=" 167 123 174 120 174 126" stroke="none"/>
            <polygon uuid="_-46TIZTDEeqUuepXYUrgtg" fill="none" clip-path="url(#clipPath17)" points=" 167 123 174 120 174 126"/>
        </g>
        <g font-size="9" font-family="'.AppleSystemUIFont'" stroke-linecap="butt">
            <line clip-path="url(#clipPath18)" fill="none" uuid="_LVCKMJYEEeqUuepXYUrgtg" x1="167" x2="306" y1="146" y2="146"/>
            <polygon uuid="_LVCKMJYEEeqUuepXYUrgtg" clip-path="url(#clipPath19)" points=" 306 146 299 149 299 143" stroke="none"/>
            <polygon uuid="_LVCKMJYEEeqUuepXYUrgtg" fill="none" clip-path="url(#clipPath19)" points=" 306 146 299 149 299 143"/>
        </g>
        <g font-size="9" font-family="'.AppleSystemUIFont'" stroke-linecap="butt">
            <line clip-path="url(#clipPath20)" fill="none" uuid="_OxhiYZYIEeqUuepXYUrgtg" x1="328" x2="328" y1="153" y2="277"/>
            <polygon uuid="_OxhiYZYIEeqUuepXYUrgtg" clip-path="url(#clipPath21)" points=" 328 277 325 270 331 270" stroke="none"/>
            <polygon uuid="_OxhiYZYIEeqUuepXYUrgtg" fill="none" clip-path="url(#clipPath21)" points=" 328 277 325 270 331 270"/>
        </g>
        <g font-size="9" font-family="'.AppleSystemUIFont'" stroke-linecap="butt">
            <line clip-path="url(#clipPath22)" fill="none" uuid="_Q-d7EZYIEeqUuepXYUrgtg" x1="388" x2="388" y1="277" y2="153"/>
            <polygon uuid="_Q-d7EZYIEeqUuepXYUrgtg" clip-path="url(#clipPath23)" points=" 388 153 391 160 385 160" stroke="none"/>
            <polygon uuid="_Q-d7EZYIEeqUuepXYUrgtg" fill="none" clip-path="url(#clipPath23)" points=" 388 153 391 160 385 160"/>
        </g>
    </g>
</svg>
